<svg xmlns="http://www.w3.org/2000/svg" width="327" height="159" viewBox="0 0 327 159" fill="none"><g clip-path="url(#clip0_153_485)"><path fill-rule="evenodd" clip-rule="evenodd" d="M305.42 145.63H307.24L308.97 138.69H309L309.43 145.63H310.89L315 138.69H315.03L313.02 145.63H314.81L317.18 136.9H314.5L310.76 143.23H310.74L310.44 136.9H307.79L305.42 145.63Z" fill="#005487"></path><path fill-rule="evenodd" clip-rule="evenodd" d="M321.439 138.38H323.259C324.009 138.38 324.649 138.52 324.599 139.47C324.549 140.42 323.599 140.83 322.539 140.85H320.769L321.439 138.38ZM317.539 145.62H319.469L320.399 142.21H322.199C322.959 142.21 323.449 142.42 323.399 143.27C323.399 143.85 323.239 144.45 323.199 145.04C323.186 145.235 323.203 145.43 323.249 145.62H325.119C325.037 145.293 325.013 144.955 325.049 144.62C325.049 144.08 325.179 143.5 325.209 143.11C325.209 142.42 325.099 141.79 324.389 141.56C324.964 141.476 325.493 141.196 325.886 140.769C326.28 140.341 326.514 139.79 326.549 139.21C326.639 137.52 325.649 136.9 324.079 136.92H319.959L317.539 145.62Z" fill="#005487"></path><path d="M140.439 62.84C142.725 60.5689 144.28 57.6676 144.908 54.5073C145.535 51.3471 145.204 48.0716 143.959 45.1L150.169 38.87C153.629 40.3207 157.486 40.5249 161.079 39.4475C164.673 38.3702 167.781 36.0782 169.872 32.9633C171.963 29.8484 172.907 26.104 172.544 22.37C172.18 18.636 170.531 15.1442 167.878 12.4914C165.225 9.83852 161.733 8.18933 157.999 7.82566C154.265 7.46199 150.521 8.4064 147.406 10.4975C144.291 12.5886 141.999 15.6965 140.922 19.2902C139.845 22.8839 140.049 26.7401 141.499 30.2L135.279 36.42C132.573 35.2886 129.609 34.9139 126.706 35.3361C123.803 35.7582 121.069 36.9614 118.796 38.8168C116.524 40.6723 114.798 43.1104 113.804 45.8705C112.81 48.6307 112.584 51.6091 113.151 54.4875C113.718 57.366 115.057 60.0362 117.024 62.2128C118.991 64.3894 121.513 65.9906 124.319 66.8453C127.126 67.7 130.112 67.776 132.958 67.0653C135.804 66.3545 138.404 64.8837 140.479 62.81L140.439 62.84Z" fill="#EFEBAA"></path><path d="M152.02 32.38C155.237 32.3809 158.382 31.4236 161.054 29.6302C163.725 27.8367 165.802 25.2884 167.02 22.31H175.82C177.24 25.7796 179.821 28.6482 183.122 30.4258C186.423 32.2033 190.239 32.7794 193.917 32.0556C197.596 31.3318 200.909 29.353 203.29 26.4574C205.672 23.5618 206.973 19.9291 206.973 16.18C206.973 12.4309 205.672 8.7982 203.29 5.90259C200.909 3.00698 197.596 1.0282 193.917 0.304394C190.239 -0.419414 186.423 0.15667 183.122 1.93421C179.821 3.71174 177.24 6.5804 175.82 10.05H167.02C165.908 7.33172 164.079 4.96662 161.728 3.20763C159.376 1.44865 156.591 0.361939 153.669 0.0637307C150.748 -0.234477 147.8 0.267033 145.142 1.51462C142.483 2.76221 140.214 4.70895 138.577 7.14665C136.939 9.58434 135.995 12.4213 135.845 15.3541C135.696 18.2869 136.346 21.2053 137.727 23.797C139.107 26.3888 141.167 28.5565 143.684 30.0683C146.202 31.5801 149.083 32.3792 152.02 32.38Z" fill="#E8E395"></path><mask id="mask0_153_485" style="mask-type:luminance" maskUnits="userSpaceOnUse" x="135" y="-1" width="72" height="34"><path d="M152.02 32.38C155.237 32.3809 158.382 31.4236 161.054 29.6302C163.725 27.8367 165.802 25.2884 167.02 22.31H175.82C177.24 25.7796 179.821 28.6482 183.122 30.4258C186.423 32.2033 190.239 32.7794 193.917 32.0556C197.596 31.3318 200.909 29.353 203.29 26.4574C205.672 23.5618 206.973 19.9291 206.973 16.18C206.973 12.4309 205.672 8.7982 203.29 5.90259C200.909 3.00698 197.596 1.0282 193.917 0.304394C190.239 -0.419414 186.423 0.15667 183.122 1.93421C179.821 3.71174 177.24 6.5804 175.82 10.05H167.02C165.908 7.33172 164.079 4.96662 161.728 3.20763C159.376 1.44865 156.591 0.361939 153.669 0.0637307C150.748 -0.234477 147.8 0.267033 145.142 1.51462C142.483 2.76221 140.214 4.70895 138.577 7.14665C136.939 9.58434 135.995 12.4213 135.845 15.3541C135.696 18.2869 136.346 21.2053 137.727 23.797C139.107 26.3888 141.167 28.5565 143.684 30.0683C146.202 31.5801 149.083 32.3792 152.02 32.38Z" fill="white"></path></mask><g mask="url(#mask0_153_485)"><path d="M140.439 62.84C142.725 60.5689 144.28 57.6676 144.908 54.5073C145.535 51.3471 145.204 48.0716 143.959 45.1L150.169 38.87C153.629 40.3207 157.486 40.5249 161.079 39.4475C164.673 38.3702 167.781 36.0782 169.872 32.9633C171.963 29.8484 172.907 26.104 172.544 22.37C172.18 18.636 170.531 15.1442 167.878 12.4914C165.225 9.83852 161.733 8.18933 157.999 7.82566C154.265 7.46199 150.521 8.4064 147.406 10.4975C144.291 12.5886 141.999 15.6965 140.922 19.2902C139.845 22.8839 140.049 26.7401 141.499 30.2L135.279 36.42C132.573 35.2886 129.609 34.9139 126.706 35.3361C123.803 35.7582 121.069 36.9614 118.796 38.8168C116.524 40.6723 114.798 43.1104 113.804 45.8705C112.81 48.6307 112.584 51.6091 113.151 54.4875C113.718 57.366 115.057 60.0362 117.024 62.2128C118.991 64.3894 121.513 65.9906 124.319 66.8453C127.126 67.7 130.112 67.776 132.958 67.0653C135.804 66.3545 138.404 64.8837 140.479 62.81L140.439 62.84Z" fill="#DAE343"></path></g><path d="M175.23 94.9099C177.499 92.6327 179.041 89.7324 179.658 86.5774C180.276 83.4224 179.943 80.1549 178.7 77.1899L184.96 70.9499C188.417 72.3929 192.268 72.5906 195.855 71.5092C199.442 70.4279 202.542 68.1347 204.626 65.0213C206.71 61.9079 207.648 58.1676 207.28 54.4394C206.912 50.7112 205.261 47.2264 202.609 44.5803C199.956 41.9343 196.468 40.2913 192.739 39.932C189.01 39.5727 185.272 40.5193 182.163 42.6102C179.054 44.7012 176.768 47.8066 175.695 51.396C174.622 54.9853 174.829 58.8359 176.28 62.2899L170.06 68.5099C167.351 67.3764 164.386 67.0003 161.48 67.4217C158.574 67.8432 155.838 69.0464 153.563 70.9028C151.288 72.7591 149.561 75.1988 148.565 77.961C147.57 80.7231 147.343 83.7039 147.911 86.5847C148.478 89.4654 149.818 92.1378 151.787 94.3161C153.755 96.4944 156.279 98.0968 159.088 98.9518C161.897 99.8068 164.885 99.8824 167.734 99.1705C170.582 98.4586 173.183 96.9859 175.26 94.9099H175.23Z" fill="#EFEBAA"></path><path d="M167.83 10.1C167.317 9.72018 166.783 9.36962 166.23 9.05005C166.4 9.40005 166.61 9.74005 166.76 10.1H167.83Z" fill="#E3DD81"></path><path d="M116.161 92.7899C119.379 92.7922 122.524 91.8354 125.196 90.0418C127.868 88.2482 129.944 85.6991 131.161 82.7199H139.961C141.381 86.1923 143.964 89.0636 147.267 90.8431C150.569 92.6225 154.388 93.1996 158.069 92.4757C161.75 91.7519 165.066 89.772 167.449 86.8745C169.832 83.9769 171.135 80.3417 171.135 76.5899C171.135 72.8382 169.832 69.2029 167.449 66.3054C165.066 63.4079 161.75 61.428 158.069 60.7041C154.388 59.9803 150.569 60.5574 147.267 62.3368C143.964 64.1162 141.381 66.9875 139.961 70.4599H131.161C130.048 67.7455 128.219 65.3844 125.869 63.6289C123.519 61.8734 120.735 60.7894 117.817 60.4929C114.898 60.1963 111.954 60.6983 109.299 61.9452C106.643 63.1921 104.377 65.137 102.741 67.5722C101.105 70.0073 100.162 72.8411 100.011 75.7708C99.8613 78.7005 100.51 81.616 101.888 84.2057C103.266 86.7954 105.322 88.962 107.836 90.4739C110.35 91.9859 113.227 92.7864 116.161 92.7899Z" fill="#DAE343"></path><path fill-rule="evenodd" clip-rule="evenodd" d="M28.2709 96.6101H55.3309L52.9609 105.41H27.5509C22.1776 105.41 18.9209 107.547 17.7809 111.82C16.8276 115.373 18.5309 117.15 22.8909 117.15H36.4609C42.3309 117.15 46.1809 118.32 47.9909 120.69C49.6909 122.817 49.8643 126.243 48.5109 130.97C47.1009 135.89 44.8809 139.47 41.8809 141.74C38.4476 144.327 33.6243 145.62 27.4109 145.62H-0.0390625L2.32094 136.84H28.1209C31.2609 136.84 33.5709 136.267 35.0509 135.12C36.4471 133.902 37.3943 132.25 37.7409 130.43C38.1309 128.98 38.0609 127.91 37.5109 127.23C36.6976 126.19 34.7976 125.67 31.8109 125.67H19.6609C8.6276 125.67 4.45094 120.917 7.13094 111.41C8.51094 106.54 10.7609 102.92 13.8509 100.56C17.2576 97.9334 22.0643 96.6168 28.2709 96.6101ZM64.4909 96.6101H74.3109L71.9109 105.53H62.0909L64.4909 96.6101ZM60.9609 109.68H70.7709L61.1609 145.62H51.3609L60.9609 109.68ZM95.5009 109.68H112.821L103.551 144.26C102.171 149.4 99.9976 153.107 97.0309 155.38C94.2909 157.473 90.6476 158.52 86.1009 158.52H67.5009L69.4409 151.23H86.3409C90.1709 151.23 92.5709 149.36 93.5809 145.62H85.8709C73.3309 145.62 68.6643 139.663 71.8709 127.75C73.011 122.941 75.5804 118.59 79.2409 115.27C83.4209 111.54 88.8609 109.68 95.5309 109.68H95.5009ZM90.6709 138.19H95.5709L101.141 117.4C99.7423 117.044 98.3042 116.866 96.8609 116.87C93.6894 116.806 90.566 117.653 87.8609 119.31C84.7591 121.315 82.5548 124.444 81.7109 128.04C80.7043 131.813 80.9843 134.48 82.5509 136.04C84.0109 137.49 86.7109 138.19 90.7009 138.19H90.6709ZM121.721 116.87H115.111L117.041 109.68H123.641L127.141 96.6101H136.621L133.111 109.68H143.271L141.351 116.87H131.231L127.331 131.38C126.538 134.327 126.634 136.247 127.621 137.14C128.621 138.03 130.961 138.46 134.621 138.46H135.571L133.661 145.62H125.001C121.448 145.62 118.998 144.62 117.651 142.62C116.304 140.62 116.094 137.883 117.021 134.41L121.721 116.87ZM148.581 145.62H139.181L148.811 109.68H164.811C169.171 109.68 171.741 110.54 172.501 112.27C173.128 113.823 172.734 117.237 171.321 122.51L170.741 124.69H161.741L162.501 121.84C163.211 119.2 163.321 117.67 162.821 117.23C162.321 116.79 160.181 116.59 156.411 116.59L148.581 145.62ZM187.711 146.38C181.044 146.38 176.591 144.267 174.351 140.04C172.571 136.707 172.338 132.573 173.651 127.64C174.921 122.747 177.644 118.354 181.461 115.04C185.918 111.028 191.735 108.861 197.731 108.98C202.951 108.98 206.898 110.453 209.571 113.4C212.658 116.733 213.384 121.48 211.751 127.64C210.416 132.859 207.448 137.516 203.281 140.93C198.917 144.542 193.405 146.475 187.741 146.38H187.711ZM189.661 138.6C192.016 138.589 194.31 137.852 196.231 136.49C199.074 134.341 201.06 131.25 201.831 127.77C202.781 124.22 202.641 121.47 201.381 119.52C200.221 117.75 198.381 116.87 195.691 116.87C192.939 116.876 190.285 117.89 188.231 119.72C185.876 121.845 184.223 124.635 183.491 127.72C182.618 130.993 182.768 133.617 183.941 135.59C184.523 136.579 185.369 137.385 186.386 137.917C187.402 138.449 188.547 138.686 189.691 138.6H189.661ZM222.181 145.6H212.791L222.411 109.66H240.211C245.544 109.66 249.128 110.66 250.961 112.66C252.794 114.66 253.058 118.047 251.751 122.82L245.641 145.6H236.061L241.831 124.1C242.531 121.47 242.651 119.74 242.161 118.92C241.671 118.1 240.061 117.7 237.341 117.7H229.701L222.181 145.6ZM266.811 96.6001H276.631L274.241 105.52H264.461L266.811 96.6001ZM263.321 109.67H273.131L263.491 145.61H253.681L263.321 109.67ZM293.521 137.91H303.521L301.451 145.61H288.681C282.451 145.61 278.151 144 275.741 140.77C273.331 137.54 273.031 133.33 274.531 127.77C277.764 115.717 285.694 109.693 298.321 109.7H311.061L308.961 117.5H298.961C295.061 117.5 292.151 118.05 290.211 119.13C287.541 120.63 285.631 123.51 284.511 127.74C283.671 130.84 283.691 133.14 284.511 134.64C285.851 136.83 288.821 137.92 293.551 137.92L293.521 137.91Z" fill="#005487"></path></g><defs><clipPath id="clip0_153_485"><rect width="326.56" height="158.52" fill="white"></rect></clipPath></defs></svg>